<svg width="53" height="53" viewBox="0 0 53 53" fill="none" xmlns="http://www.w3.org/2000/svg">
<path d="M26.6009 4.57932C31.4916 
4.57932 36.182 6.52215 39.6403 
9.98041C43.0986 13.4387 45.0414 
18.1291 45.0414 23.0198C45.0414 
37.1214 33.1093 49.0535 26.6009 
49.0535C20.0925 49.0535 8.1604 
37.1214 8.1604 23.0198C8.1604 
18.1291 10.1032 13.4387 13.5615 
9.98041C17.0198 6.52215 21.7102 
4.57932 26.6009 4.57932ZM26.6009 
8.91826C22.8609 8.91826 19.2742 
10.404 16.6296 13.0485C13.985 
15.6931 12.4993 19.2799 12.4993 
23.0198C12.4993 33.4203 21.5352 
44.7145 26.6009 44.7145C31.6666 
44.7145 40.7025 33.4203 40.7025 
23.0198C40.7025 19.2799 39.2168 
15.6931 36.5722 13.0485C33.9277 
10.404 30.3409 8.91826 26.6009 
8.91826ZM38.533 24.1046C38.8801 
24.1046 39.2251 24.1219 39.5635 
24.1588C39.7172 25.6067 39.5452 
27.0707 39.0598 28.4435C38.5745 
29.8164 37.7883 31.0632 36.7587 
32.0928C35.7291 33.1224 34.4822 
33.9087 33.1094 34.394C31.7365 
34.8793 30.2726 35.0514 28.8246 
34.8977C28.6801 33.5363 28.8235 
32.1598 29.2456 30.8575C29.6676 
29.5552 30.3589 28.3562 31.2744 
27.3383C32.1899 26.3205 33.3093 
25.5066 34.5598 24.9495C35.8103 
24.3924 37.164 24.1045 38.533 
24.1046ZM14.6688 24.1046C16.0378 24.1045 17.3915 24.3924 18.642 24.9495C19.8925 25.5066 21.0119 26.3205 21.9274 27.3383C22.843 28.3562 23.5342 29.5552 23.9562 30.8575C24.3783 32.1598 24.5217 33.5363 24.3772 34.8977C22.9293 35.0514 21.4653 34.8793 20.0924 34.394C18.7196 33.9087 17.4727 33.1224 16.4431 32.0928C15.4135 31.0632 14.6273 29.8164 14.142 28.4435C13.6567 27.0707 13.4846 25.6067 13.6383 24.1588C13.9746 24.1219 14.3217 24.1046 14.6688 24.1046Z" fill="#fff"/>
</svg>
